# xmcd CD database file
#
# Track frame offsets:
#	150
#	18285
#	37220
#	55482
#	76027
#	94665
#	114085
#	127775
#	144255
#	160482
#	175850
#	192602
#	211385
#
# Disc length: 3034 seconds
#
# Revision: 0
# Processed by: cddbd v1.5PL3 Copyright (c) Steve Scherf et al.
# Submitted via: CDex 1.51
#
DISCID=a80bd80d
DTITLE=テレサ・テン - 〜So long〜テレサ・テン ぱーふぇくとコレクション テレサ・テン ディスク４
DYEAR=2000
DGENRE=JPop
TTITLE0=I Love You
TTITLE1=今でも
TTITLE2=旅人
TTITLE3=ジャスミン旅情
TTITLE4=ノスタルジア
TTITLE5=愛に疲れて
TTITLE6=雨夜花
TTITLE7=西海岸から
TTITLE8=慕情
TTITLE9=抱擁
TTITLE10=おやすみなさい
TTITLE11=ルージュで書いたサヨナラ
TTITLE12=哀しくて
EXTD=YEAR: 2000
EXTT0=
EXTT1=
EXTT2=
EXTT3=
EXTT4=
EXTT5=
EXTT6=
EXTT7=
EXTT8=
EXTT9=
EXTT10=
EXTT11=
EXTT12=
PLAYORDER=
